<?xml version="1.0" encoding="utf-8"?>
<!-- Generator: Adobe Illustrator 21.0.0, SVG Export Plug-In . SVG Version: 6.00 Build 0)  -->
<svg version="1.1" id="Layer_1" xmlns="http://www.w3.org/2000/svg" xmlns:xlink="http://www.w3.org/1999/xlink" x="0px" y="0px"
	 viewBox="0 0 501.5 145.4" style="enable-background:new 0 0 501.5 145.4;" xml:space="preserve">
<style type="text/css">
	.st0{fill:#222222;}
	.st1{fill:#555555;}
	.st2{fill:#FFCE07;}
	.st3{fill:none;stroke:#40403F;stroke-width:2.5;stroke-miterlimit:10;}
	.st4{fill:#EC5528;stroke:#40403F;stroke-width:2.5;stroke-miterlimit:10;}
	.st5{fill:none;stroke:#40403F;stroke-width:2.5;stroke-linecap:round;stroke-miterlimit:10;}
</style>
<g>
	<path class="st0" d="M267.9,52.1h-10.5v1.6c0,3.3,1.2,6,3.6,8.2c2.4,2.2,5.4,3.8,9.2,4.8l-4.1,4.9c-2.6-1.1-5-2.3-7.3-3.8
		c-2.2-1.5-3.9-3.1-5-4.8c-0.9,1.9-2.6,3.7-5,5.5c-2.4,1.8-5,3.3-8,4.4l-4.7-4.6c4.4-1.5,7.8-3.4,10.3-5.7c2.5-2.3,3.7-5.3,3.7-9.2
		v-1.3h-10.5v-5.7h28.4V52.1z M245.8,96.5V75.2h6.9V81h23.5v-5.8h6.9v21.3c0,0.7-0.1,1.1-0.4,1.3c-0.3,0.2-0.7,0.4-1.3,0.4h-33.8
		c-0.7,0-1.1-0.1-1.4-0.4C245.9,97.6,245.8,97.2,245.8,96.5z M276.1,92.7v-6.1h-23.5v6.1H276.1z M283.1,44V73h-7V44H283.1z"/>
	<path class="st0" d="M311.7,45.8c0.6,0,1.1,0.1,1.3,0.4c0.3,0.3,0.4,0.7,0.4,1.3c-0.1,1.5-0.3,3.2-0.6,5.2c-0.2,2-0.5,3.9-0.9,5.9
		c-0.4,2-0.7,4-1.1,5.9c-0.4,1.9-0.7,3.6-1.1,5h15c0.3-1.2,0.6-2.6,0.9-4.2c0.3-1.6,0.6-3.2,0.9-4.8c0.3-1.6,0.5-3.2,0.7-4.7
		c0.2-1.5,0.2-2.9,0.2-4.2h-12.4v-5.9h18.1c0.6,0,1.1,0.1,1.3,0.4c0.3,0.3,0.4,0.7,0.4,1.3c-0.1,1.4-0.2,3.1-0.4,5
		c-0.2,1.9-0.5,3.8-0.7,5.9c-0.2,2-0.5,4-0.9,6c-0.4,2-0.7,3.7-1,5.2h8.3v5.8h-22.1v23.5H311V75.3h-22v-5.8h13.6
		c0.3-1.2,0.7-2.6,1.1-4.2c0.4-1.5,0.7-3.1,1.1-4.8c0.3-1.6,0.5-3.2,0.7-4.7c0.2-1.5,0.3-3,0.4-4.2h-12.2v-5.9H311.7z"/>
	<path class="st0" d="M349.2,47.3h22.7c0.6,0,1.1,0.1,1.3,0.4c0.3,0.3,0.4,0.7,0.4,1.3v34.6c0,0.7-0.1,1.1-0.4,1.3
		c-0.3,0.2-0.7,0.4-1.3,0.4h-22.8c-0.7,0-1.1-0.1-1.3-0.3c-0.2-0.2-0.3-0.7-0.3-1.3V49c0-0.6,0.1-1,0.4-1.3
		C348.1,47.4,348.5,47.3,349.2,47.3z M366.7,79.5V53.1h-12.3v26.4H366.7z M382.7,98.8V44.1h7v54.7H382.7z"/>
	<path class="st0" d="M426,47.2c0.6,0,1.1,0.1,1.3,0.4c0.3,0.3,0.4,0.7,0.4,1.3c-0.5,8.4-2.6,16-6.4,22.7c-3.8,6.7-9.4,12.4-16.9,17
		l-5.9-4.6c6.7-3.5,11.8-7.9,15.4-13.1c3.6-5.2,5.6-11.1,6-17.9h-18.4v-5.9H426z M444.1,44.1v54.7h-7V44.1H444.1z"/>
</g>
<g>
	<path class="st1" d="M182.6,84.9c-0.6,0-1.1-0.1-1.3-0.4c-0.2-0.2-0.3-0.7-0.3-1.3V47.8h6.7V79l4.5-0.1c0.5,0,1.3,0,2.2-0.1
		c0.9-0.1,1.8-0.2,2.7-0.2c0.9-0.1,1.9-0.2,2.8-0.4c0.9-0.1,1.7-0.3,2.2-0.4v5.7c-0.5,0.1-1.2,0.3-2.2,0.4c-0.9,0.2-2,0.3-3.2,0.5
		c-1.1,0.1-2.3,0.2-3.5,0.3c-1.2,0.1-2.3,0.1-3.4,0.1c-0.4,0-0.9,0.1-1.7,0.1c-0.8,0-1.6,0-2.4,0c-0.8,0-1.6,0.1-2.2,0.1
		C183,84.9,182.7,84.9,182.6,84.9z M204.1,95.1V46.3h6.4v16.6h5.2V45.4h6.4v52.2h-6.4V69.4h-5.2v25.8H204.1z"/>
</g>
<g>
	<path class="st2" d="M144.9,142.3H25.7c-7.2,0-13-5.8-13-13V18.8c0-7.2,5.8-13,13-13h119.2c7.2,0,13,5.8,13,13v110.5
		C157.9,136.5,152,142.3,144.9,142.3z"/>
	<path class="st3" d="M77.9,89.2c0,0,0.1,0,0.1,0.1"/>
	<path class="st3" d="M74.1,65.4"/>
	<path class="st3" d="M78.1,89.2"/>
	<path class="st3" d="M80.5,89.7"/>
	<line class="st3" x1="78.1" y1="100.2" x2="78.1" y2="100.2"/>
	<line class="st3" x1="76.3" y1="100.2" x2="77.9" y2="100.2"/>
	<line class="st3" x1="78.1" y1="89.2" x2="78.1" y2="89.7"/>
	<line class="st3" x1="111.7" y1="100.2" x2="120.3" y2="100.2"/>
	<line class="st3" x1="78.1" y1="100.2" x2="86.7" y2="100.2"/>
	<line class="st3" x1="77.9" y1="100.2" x2="77.9" y2="100.2"/>
	<line class="st3" x1="77.9" y1="100.2" x2="78.1" y2="100.2"/>
	<line class="st3" x1="120.3" y1="100.2" x2="120.3" y2="100.2"/>
	<g>
		<polyline class="st4" points="76.3,100.2 71.5,114 75.5,114 86.7,100.2 		"/>
		<polyline class="st4" points="111.7,100.2 123,114 126.9,114 122.1,100.2 		"/>
		<path class="st4" d="M78.1,100.2h8.6l0,0h25l0,0h8.6l4-34.8V43.2c0-3.6-2.9-6.4-6.4-6.4H80.5c-3.6,0-6.4,2.9-6.4,6.4v22.2"/>
		<path class="st4" d="M78.1,100.2h-0.2h-1.6l0,0h-3.9c-4.3,0-7.7-3.5-7.7-7.7V68.4c0-1.6,1.3-3,3-3h6.4h1c1.6,0,3,1.3,3,3v15.4v5.4
			v0.5V100.2z"/>
		<path class="st4" d="M45,114H32.6v-3.5c0-1.8,1.5-3.3,3.3-3.3h5.7c1.8,0,3.3,1.5,3.3,3.3V114z"/>
		<path class="st4" d="M49.7,60.5h-22c-0.5,0-0.9-0.5-0.8-1l5.3-26.9c0.1-0.4,0.4-0.6,0.8-0.6h11.5c0.4,0,0.7,0.3,0.8,0.6l5.3,26.9
			C50.5,60,50.2,60.5,49.7,60.5z"/>
		<ellipse class="st4" cx="46.7" cy="75" rx="2.2" ry="4"/>
		<path class="st4" d="M120.3,89.7v10.5v0h1.8h3.9c4.3,0,7.7-3.5,7.7-7.7V68.4c0-1.6-1.3-3-3-3h-6.4h-1c-1.6,0-3,1.3-3,3v16.7v4.2
			V89.7z"/>
	</g>
	<path class="st3" d="M120.3,85.1c0-3.1-2.5-5.6-5.6-5.6H83.6c-2.7,0-4.9,1.9-5.5,4.4"/>
	<line class="st3" x1="80.5" y1="89.7" x2="78.1" y2="89.7"/>
	<line class="st3" x1="119.8" y1="89.7" x2="80.5" y2="89.7"/>
	<polyline class="st3" points="120.3,100.2 122.1,100.2 122.1,100.2 	"/>
	<line class="st5" x1="145.4" y1="114.4" x2="24.6" y2="114.4"/>
	<line class="st3" x1="38.8" y1="107.2" x2="38.8" y2="60.6"/>
	<line class="st3" x1="46.7" y1="60.5" x2="46.7" y2="71.2"/>
</g>
</svg>
