<?xml version="1.0" encoding="utf-8"?>
<!-- Generator: Adobe Illustrator 21.0.0, SVG Export Plug-In . SVG Version: 6.00 Build 0)  -->
<svg version="1.1" id="Layer_1" xmlns="http://www.w3.org/2000/svg" xmlns:xlink="http://www.w3.org/1999/xlink" x="0px" y="0px"
	 viewBox="0 0 413.6 116.1" style="enable-background:new 0 0 413.6 116.1;" xml:space="preserve">
<style type="text/css">
	.st0{fill:#545453;}
	.st1{fill:url(#SVGID_1_);}
	.st2{fill:url(#SVGID_2_);}
	.st3{fill:url(#SVGID_3_);}
</style>
<g>
	<path class="st0" d="M265,42c0.5,0,0.8,0.1,1,0.3c0.2,0.2,0.3,0.5,0.3,1c-0.1,1.2-0.2,2.5-0.4,4c-0.2,1.5-0.4,3-0.6,4.6
		c-0.3,1.6-0.5,3.1-0.8,4.6c-0.3,1.5-0.5,2.7-0.8,3.8h11.1c0.2-0.9,0.4-2,0.7-3.2c0.2-1.2,0.5-2.4,0.6-3.7c0.2-1.2,0.4-2.4,0.5-3.6
		c0.1-1.2,0.2-2.3,0.2-3.2h-9.2V42h13.3c0.5,0,0.8,0.1,1,0.3c0.2,0.2,0.3,0.5,0.3,1c-0.1,1.1-0.2,2.4-0.3,3.8
		c-0.2,1.4-0.3,2.9-0.5,4.5c-0.2,1.5-0.4,3.1-0.7,4.6c-0.3,1.5-0.5,2.9-0.7,4h6.1v4.5h-16.3v18h-5.2v-18h-16.2v-4.5h10
		c0.2-0.9,0.5-2,0.8-3.2c0.3-1.2,0.5-2.4,0.8-3.7c0.2-1.2,0.4-2.4,0.5-3.6c0.2-1.2,0.2-2.3,0.3-3.2h-9V42H265z"/>
	<path class="st0" d="M292.7,43.1h16.7c0.5,0,0.8,0.1,1,0.3c0.2,0.2,0.3,0.5,0.3,1V71c0,0.5-0.1,0.8-0.3,1c-0.2,0.2-0.5,0.3-1,0.3
		h-16.8c-0.5,0-0.8-0.1-1-0.3c-0.2-0.2-0.3-0.5-0.3-1V44.5c0-0.5,0.1-0.8,0.3-1C291.9,43.2,292.2,43.1,292.7,43.1z M305.6,67.9V47.6
		h-9.1v20.3H305.6z M317.4,82.7v-42h5.2v42H317.4z"/>
	<path class="st0" d="M349.2,43c0.5,0,0.8,0.1,1,0.3c0.2,0.2,0.3,0.5,0.3,1c-0.4,6.5-1.9,12.3-4.7,17.4s-6.9,9.5-12.5,13l-4.3-3.5
		c4.9-2.7,8.7-6.1,11.3-10c2.6-4,4.1-8.5,4.4-13.7h-13.5V43H349.2z M362.7,40.7v42h-5.2v-42H362.7z"/>
</g>
<g>
	<path class="st0" d="M160,72.2c-0.5,0-0.8-0.1-1-0.3c-0.2-0.2-0.2-0.5-0.2-1V42.8h5.1v24.7l3.5-0.1c0.4,0,1,0,1.6-0.1
		c0.7-0.1,1.4-0.1,2.1-0.2c0.7-0.1,1.4-0.2,2.1-0.3c0.7-0.1,1.3-0.2,1.7-0.3V71c-0.4,0.1-0.9,0.2-1.7,0.3c-0.7,0.1-1.5,0.2-2.4,0.4
		c-0.9,0.1-1.8,0.2-2.7,0.3c-0.9,0.1-1.8,0.1-2.6,0.1c-0.3,0-0.7,0.1-1.3,0.1c-0.6,0-1.2,0-1.8,0c-0.6,0-1.2,0-1.7,0
		C160.3,72.3,160,72.2,160,72.2z M176.4,80.4V41.6h4.9v13.2h4V40.9h4.9v41.5h-4.9V59.9h-4v20.5H176.4z"/>
</g>
<g>
	<path class="st0" d="M229.4,46.1h-8v1.3c0,2.6,0.9,4.8,2.7,6.5c1.8,1.7,4.1,3,7,3.8l-3.1,3.9c-2-0.8-3.8-1.8-5.5-3
		c-1.7-1.2-3-2.4-3.8-3.8c-0.7,1.5-2,2.9-3.8,4.3c-1.8,1.4-3.8,2.6-6.1,3.5l-3.6-3.7c3.3-1.2,5.9-2.7,7.8-4.5
		c1.9-1.8,2.8-4.2,2.8-7.3v-1.1h-8v-4.5h21.6V46.1z M212.6,81.3V64.4h5.2V69h17.9v-4.6h5.2v16.9c0,0.5-0.1,0.9-0.3,1.1
		c-0.2,0.2-0.5,0.3-1,0.3h-25.7c-0.5,0-0.8-0.1-1-0.3C212.7,82.2,212.6,81.8,212.6,81.3z M235.7,78.3v-4.8h-17.9v4.8H235.7z
		 M241,39.7v23h-5.3v-23H241z"/>
</g>
<g>
	<linearGradient id="SVGID_1_" gradientUnits="userSpaceOnUse" x1="18.0898" y1="7.3202" x2="123.3398" y2="108.5702">
		<stop  offset="0" style="stop-color:#FCAF17"/>
		<stop  offset="0.5135" style="stop-color:#F26921"/>
		<stop  offset="1" style="stop-color:#FCAF17"/>
	</linearGradient>
	<path class="st1" d="M120.9,4.5H20.5c-3.1,0-5.6,2.5-5.6,5.6v95.7c0,3.1,2.5,5.6,5.6,5.6h100.4c3.1,0,5.6-2.5,5.6-5.6V10.1
		C126.6,7,124,4.5,120.9,4.5z M122.5,89.7h-25v-7v-0.4v-3.5V65.1c0-0.2,0.2-0.4,0.3-0.4h0.8h5.1c0.1,0,0.3,0.2,0.3,0.4V81
		c0,0.5,0,0.9,0,1.3c0,0.5,0,1,0,1.4c-0.2,0-0.4,0-0.8,0c-1.1,0-2,0.9-2,2c0,1.1,0.9,2,2,2c1.3,0,2.8-0.1,3.8-1.2
		c1.1-1.2,1.1-2.7,1.1-4.4c0-0.4,0-0.8,0-1.2V65.1c0-2.5-2-4.5-4.4-4.5h-3V44.2c0-4.1-3.2-7.4-7.1-7.4H63.9c-3.9,0-7.1,3.3-7.1,7.4
		v16.3h-3c-2.4,0-4.4,2-4.4,4.5v20c0,1.7,0.5,3.3,1.3,4.6H44c-0.4-2.6-2.3-4.7-4.8-5.4V54.8h6.6c0.8,0,1.5-0.4,2.1-1
		c0.5-0.6,0.7-1.4,0.6-2.2l-4.2-22.3c-0.2-1.3-1.3-2.2-2.6-2.2h-9.1c-1.3,0-2.4,0.9-2.6,2.2l-4.2,22.3c-0.2,0.8,0.1,1.6,0.6,2.2
		c0.5,0.6,1.3,1,2.1,1h6.7v29.5c-2.8,0.8-4.9,3.4-4.9,6.5v3h12.3c0,0,0.1,0,0.1,0h79.8v12c0,0.8-0.7,1.5-1.5,1.5H20.5
		c-0.8,0-1.5-0.7-1.5-1.5V10.1c0-0.8,0.7-1.5,1.5-1.5h100.4c0.8,0,1.5,0.7,1.5,1.5V89.7z M64,89.4v-4.6h29.3v4.6l-9,0H73l0,0H64z
		 M64,80.7v-2.6c0.3-1.1,1.2-1.8,2.3-1.8H91c1.3,0,2.4,1.2,2.4,2.6v1.8H64z M91,72.2H66.3c-0.8,0-1.6,0.2-2.3,0.4v-7.6
		c0-2-1.3-3.8-3.2-4.3V44.2c0-1.8,1.4-3.3,3-3.3h29.6c1.7,0,3,1.5,3,3.3v16.5c-1.8,0.6-3.2,2.3-3.2,4.3v7.6
		C92.6,72.4,91.8,72.2,91,72.2z M59.9,65.1v12.8v4.5v0.4v6.7h-0.8l0,0h-1.6c-2.2,0-4-1.9-4-4.3v-20c0-0.2,0.2-0.4,0.3-0.4h5.1h0.8
		C59.8,64.6,59.9,64.8,59.9,65.1z M37.1,88.1h0.3c1.1,0,2,0.6,2.4,1.6h-5.2C35.1,88.8,36,88.1,37.1,88.1z M30.1,50.7l3.6-19.5h6.7
		l3.6,19.5H30.1z"/>
	<linearGradient id="SVGID_2_" gradientUnits="userSpaceOnUse" x1="20.9722" y1="4.3239" x2="126.2222" y2="105.5739">
		<stop  offset="0" style="stop-color:#FCAF17"/>
		<stop  offset="0.5135" style="stop-color:#F26921"/>
		<stop  offset="1" style="stop-color:#FCAF17"/>
	</linearGradient>
	<circle class="st2" cx="71.6" cy="53" r="2.4"/>
	<linearGradient id="SVGID_3_" gradientUnits="userSpaceOnUse" x1="27.9255" y1="-2.9041" x2="133.1755" y2="98.3459">
		<stop  offset="0" style="stop-color:#FCAF17"/>
		<stop  offset="0.5135" style="stop-color:#F26921"/>
		<stop  offset="1" style="stop-color:#FCAF17"/>
	</linearGradient>
	<circle class="st3" cx="86" cy="53" r="2.4"/>
</g>
</svg>
